<svg width="48" height="48" viewBox="0 0 48 48" xmlns="http://www.w3.org/2000/svg" fill="none"><g opacity="0.09"> <path fill-rule="evenodd" clip-rule="evenodd" d="M4 48L1 48L1 47L4 47L4 48Z" fill="#1C1F21"></path> <path fill-rule="evenodd" clip-rule="evenodd" d="M10 48L7 48L7 47L10 47L10 48Z" fill="#1C1F21"></path> <path fill-rule="evenodd" clip-rule="evenodd" d="M16 48L13 48L13 47L16 47L16 48Z" fill="#1C1F21"></path> <path fill-rule="evenodd" clip-rule="evenodd" d="M22 48L19 48L19 47L22 47L22 48Z" fill="#1C1F21"></path> <path fill-rule="evenodd" clip-rule="evenodd" d="M28 48L25 48L25 47L28 47L28 48Z" fill="#1C1F21"></path> <path fill-rule="evenodd" clip-rule="evenodd" d="M34 48L31 48L31 47L34 47L34 48Z" fill="#1C1F21"></path> <path fill-rule="evenodd" clip-rule="evenodd" d="M40 48L37 48L37 47L40 47L40 48Z" fill="#1C1F21"></path> <path fill-rule="evenodd" clip-rule="evenodd" d="M46 48L43 48L43 47L46 47L46 48Z" fill="#1C1F21"></path> <path fill-rule="evenodd" clip-rule="evenodd" d="M4 42L1 42L1 41L4 41L4 42Z" fill="#1C1F21"></path> <path fill-rule="evenodd" clip-rule="evenodd" d="M10 42L7 42L7 41L10 41L10 42Z" fill="#1C1F21"></path> <path fill-rule="evenodd" clip-rule="evenodd" d="M16 42L13 42L13 41L16 41L16 42Z" fill="#1C1F21"></path> <path fill-rule="evenodd" clip-rule="evenodd" d="M22 42L19 42L19 41L22 41L22 42Z" fill="#1C1F21"></path> <path fill-rule="evenodd" clip-rule="evenodd" d="M28 42L25 42L25 41L28 41L28 42Z" fill="#1C1F21"></path> <path fill-rule="evenodd" clip-rule="evenodd" d="M34 42L31 42L31 41L34 41L34 42Z" fill="#1C1F21"></path> <path fill-rule="evenodd" clip-rule="evenodd" d="M40 42L37 42L37 41L40 41L40 42Z" fill="#1C1F21"></path> <path fill-rule="evenodd" clip-rule="evenodd" d="M46 42L43 42L43 41L46 41L46 42Z" fill="#1C1F21"></path> <path fill-rule="evenodd" clip-rule="evenodd" d="M4 36L1 36L1 35L4 35L4 36Z" fill="#1C1F21"></path> <path fill-rule="evenodd" clip-rule="evenodd" d="M10 36L7 36L7 35L10 35L10 36Z" fill="#1C1F21"></path> <path fill-rule="evenodd" clip-rule="evenodd" d="M16 36L13 36L13 35L16 35L16 36Z" fill="#1C1F21"></path> <path fill-rule="evenodd" clip-rule="evenodd" d="M22 36L19 36L19 35L22 35L22 36Z" fill="#1C1F21"></path> <path fill-rule="evenodd" clip-rule="evenodd" d="M28 36L25 36L25 35L28 35L28 36Z" fill="#1C1F21"></path> <path fill-rule="evenodd" clip-rule="evenodd" d="M34 36L31 36L31 35L34 35L34 36Z" fill="#1C1F21"></path> <path fill-rule="evenodd" clip-rule="evenodd" d="M40 36L37 36L37 35L40 35L40 36Z" fill="#1C1F21"></path> <path fill-rule="evenodd" clip-rule="evenodd" d="M46 36L43 36L43 35L46 35L46 36Z" fill="#1C1F21"></path> <path fill-rule="evenodd" clip-rule="evenodd" d="M4 30L1 30L1 29L4 29L4 30Z" fill="#1C1F21"></path> <path fill-rule="evenodd" clip-rule="evenodd" d="M10 30L7 30L7 29L10 29L10 30Z" fill="#1C1F21"></path> <path fill-rule="evenodd" clip-rule="evenodd" d="M16 30L13 30L13 29L16 29L16 30Z" fill="#1C1F21"></path> <path fill-rule="evenodd" clip-rule="evenodd" d="M22 30L19 30L19 29L22 29L22 30Z" fill="#1C1F21"></path> <path fill-rule="evenodd" clip-rule="evenodd" d="M28 30L25 30L25 29L28 29L28 30Z" fill="#1C1F21"></path> <path fill-rule="evenodd" clip-rule="evenodd" d="M34 30L31 30L31 29L34 29L34 30Z" fill="#1C1F21"></path> <path fill-rule="evenodd" clip-rule="evenodd" d="M40 30L37 30L37 29L40 29L40 30Z" fill="#1C1F21"></path> <path fill-rule="evenodd" clip-rule="evenodd" d="M46 30L43 30L43 29L46 29L46 30Z" fill="#1C1F21"></path> <path fill-rule="evenodd" clip-rule="evenodd" d="M4 24L1 24L1 23L4 23L4 24Z" fill="#1C1F21"></path> <path fill-rule="evenodd" clip-rule="evenodd" d="M10 24L7 24L7 23L10 23L10 24Z" fill="#1C1F21"></path> <path fill-rule="evenodd" clip-rule="evenodd" d="M16 24L13 24L13 23L16 23L16 24Z" fill="#1C1F21"></path> <path fill-rule="evenodd" clip-rule="evenodd" d="M22 24L19 24L19 23L22 23L22 24Z" fill="#1C1F21"></path> <path fill-rule="evenodd" clip-rule="evenodd" d="M28 24L25 24L25 23L28 23L28 24Z" fill="#1C1F21"></path> <path fill-rule="evenodd" clip-rule="evenodd" d="M34 24L31 24L31 23L34 23L34 24Z" fill="#1C1F21"></path> <path fill-rule="evenodd" clip-rule="evenodd" d="M40 24L37 24L37 23L40 23L40 24Z" fill="#1C1F21"></path> <path fill-rule="evenodd" clip-rule="evenodd" d="M46 24L43 24L43 23L46 23L46 24Z" fill="#1C1F21"></path> <path fill-rule="evenodd" clip-rule="evenodd" d="M4 18L1 18L1 17L4 17L4 18Z" fill="#1C1F21"></path> <path fill-rule="evenodd" clip-rule="evenodd" d="M10 18L7 18L7 17L10 17L10 18Z" fill="#1C1F21"></path> <path fill-rule="evenodd" clip-rule="evenodd" d="M16 18L13 18L13 17L16 17L16 18Z" fill="#1C1F21"></path> <path fill-rule="evenodd" clip-rule="evenodd" d="M22 18L19 18L19 17L22 17L22 18Z" fill="#1C1F21"></path> <path fill-rule="evenodd" clip-rule="evenodd" d="M28 18L25 18L25 17L28 17L28 18Z" fill="#1C1F21"></path> <path fill-rule="evenodd" clip-rule="evenodd" d="M34 18L31 18L31 17L34 17L34 18Z" fill="#1C1F21"></path> <path fill-rule="evenodd" clip-rule="evenodd" d="M40 18L37 18L37 17L40 17L40 18Z" fill="#1C1F21"></path> <path fill-rule="evenodd" clip-rule="evenodd" d="M46 18L43 18L43 17L46 17L46 18Z" fill="#1C1F21"></path> <path fill-rule="evenodd" clip-rule="evenodd" d="M4 12L1 12L1 11L4 11L4 12Z" fill="#1C1F21"></path> <path fill-rule="evenodd" clip-rule="evenodd" d="M10 12L7 12L7 11L10 11L10 12Z" fill="#1C1F21"></path> <path fill-rule="evenodd" clip-rule="evenodd" d="M16 12L13 12L13 11L16 11L16 12Z" fill="#1C1F21"></path> <path fill-rule="evenodd" clip-rule="evenodd" d="M22 12L19 12L19 11L22 11L22 12Z" fill="#1C1F21"></path> <path fill-rule="evenodd" clip-rule="evenodd" d="M28 12L25 12L25 11L28 11L28 12Z" fill="#1C1F21"></path> <path fill-rule="evenodd" clip-rule="evenodd" d="M34 12L31 12L31 11L34 11L34 12Z" fill="#1C1F21"></path> <path fill-rule="evenodd" clip-rule="evenodd" d="M40 12L37 12L37 11L40 11L40 12Z" fill="#1C1F21"></path> <path fill-rule="evenodd" clip-rule="evenodd" d="M46 12L43 12L43 11L46 11L46 12Z" fill="#1C1F21"></path> <path fill-rule="evenodd" clip-rule="evenodd" d="M4 6L1 6L1 5L4 5L4 6Z" fill="#1C1F21"></path> <path fill-rule="evenodd" clip-rule="evenodd" d="M10 6L7 6L7 5L10 5L10 6Z" fill="#1C1F21"></path> <path fill-rule="evenodd" clip-rule="evenodd" d="M16 6L13 6L13 5L16 5L16 6Z" fill="#1C1F21"></path> <path fill-rule="evenodd" clip-rule="evenodd" d="M22 6L19 6L19 5L22 5L22 6Z" fill="#1C1F21"></path> <path fill-rule="evenodd" clip-rule="evenodd" d="M28 6L25 6L25 5L28 5L28 6Z" fill="#1C1F21"></path> <path fill-rule="evenodd" clip-rule="evenodd" d="M34 6L31 6L31 5L34 5L34 6Z" fill="#1C1F21"></path> <path fill-rule="evenodd" clip-rule="evenodd" d="M40 6L37 6L37 5L40 5L40 6Z" fill="#1C1F21"></path> <path fill-rule="evenodd" clip-rule="evenodd" d="M46 6L43 6L43 5L46 5L46 6Z" fill="#1C1F21"></path> </g><g opacity="0.09"> <path d="M48 48H47V47H48V48ZM48 46H47V45H48V46ZM48 44H47V43H48V44ZM48 42H47V41H48V42ZM48 40H47V39H48V40ZM48 38H47V37H48V38ZM48 36H47V35H48V36ZM48 34H47V33H48V34ZM48 32H47V31H48V32ZM48 30H47V29H48V30ZM48 28H47V27H48V28ZM48 26H47V25H48V26ZM48 24H47V23H48V24ZM48 22H47V21H48V22ZM48 20H47V19H48V20ZM48 18H47V17H48V18ZM48 16H47V15H48V16ZM48 14H47V13H48V14ZM48 12H47V11H48V12ZM48 10H47V9H48V10ZM48 8H47V7H48V8ZM48 6H47V5H48V6ZM48 4H47V3H48V4ZM48 2H47V1H48V2Z" fill="#1C1F21"></path> <path d="M36 48H35V47H36V48ZM36 46H35V45H36V46ZM36 44H35V43H36V44ZM36 42H35V41H36V42ZM36 40H35V39H36V40ZM36 38H35V37H36V38ZM36 36H35V35H36V36ZM36 34H35V33H36V34ZM36 32H35V31H36V32ZM36 30H35V29H36V30ZM36 28H35V27H36V28ZM36 26H35V25H36V26ZM36 24H35V23H36V24ZM36 22H35V21H36V22ZM36 20H35V19H36V20ZM36 18H35V17H36V18ZM36 16H35V15H36V16ZM36 14H35V13H36V14ZM36 12H35V11H36V12ZM36 10H35V9H36V10ZM36 8H35V7H36V8ZM36 6H35V5H36V6ZM36 4H35V3H36V4ZM36 2H35V1H36V2Z" fill="#1C1F21"></path> <path d="M24 48H23V47H24V48ZM24 46H23V45H24V46ZM24 44H23V43H24V44ZM24 42H23V41H24V42ZM24 40H23V39H24V40ZM24 38H23V37H24V38ZM24 36H23V35H24V36ZM24 34H23V33H24V34ZM24 32H23V31H24V32ZM24 30H23V29H24V30ZM24 28H23V27H24V28ZM24 26H23V25H24V26ZM24 24H23V23H24V24ZM24 22H23V21H24V22ZM24 20H23V19H24V20ZM24 18H23V17H24V18ZM24 16H23V15H24V16ZM24 14H23V13H24V14ZM24 12H23V11H24V12ZM24 10H23V9H24V10ZM24 8H23V7H24V8ZM24 6H23V5H24V6ZM24 4H23V3H24V4ZM24 2H23V1H24V2Z" fill="#1C1F21"></path> <path d="M12 48H11V47H12V48ZM12 46H11V45H12V46ZM12 44H11V43H12V44ZM12 42H11V41H12V42ZM12 40H11V39H12V40ZM12 38H11V37H12V38ZM12 36H11V35H12V36ZM12 34H11V33H12V34ZM12 32H11V31H12V32ZM12 30H11V29H12V30ZM12 28H11V27H12V28ZM12 26H11V25H12V26ZM12 24H11V23H12V24ZM12 22H11V21H12V22ZM12 20H11V19H12V20ZM12 18H11V17H12V18ZM12 16H11V15H12V16ZM12 14H11V13H12V14ZM12 12H11V11H12V12ZM12 10H11V9H12V10ZM12 8H11V7H12V8ZM12 6H11V5H12V6ZM12 4H11V3H12V4ZM12 2H11V1H12V2Z" fill="#1C1F21"></path> <path d="M42 48H41V47H42V48ZM42 46H41V45H42V46ZM42 44H41V43H42V44ZM42 42H41V41H42V42ZM42 40H41V39H42V40ZM42 38H41V37H42V38ZM42 36H41V35H42V36ZM42 34H41V33H42V34ZM42 32H41V31H42V32ZM42 30H41V29H42V30ZM42 28H41V27H42V28ZM42 26H41V25H42V26ZM42 24H41V23H42V24ZM42 22H41V21H42V22ZM42 20H41V19H42V20ZM42 18H41V17H42V18ZM42 16H41V15H42V16ZM42 14H41V13H42V14ZM42 12H41V11H42V12ZM42 10H41V9H42V10ZM42 8H41V7H42V8ZM42 6H41V5H42V6ZM42 4H41V3H42V4ZM42 2H41V1H42V2Z" fill="#1C1F21"></path> <path d="M30 48H29V47H30V48ZM30 46H29V45H30V46ZM30 44H29V43H30V44ZM30 42H29V41H30V42ZM30 40H29V39H30V40ZM30 38H29V37H30V38ZM30 36H29V35H30V36ZM30 34H29V33H30V34ZM30 32H29V31H30V32ZM30 30H29V29H30V30ZM30 28H29V27H30V28ZM30 26H29V25H30V26ZM30 24H29V23H30V24ZM30 22H29V21H30V22ZM30 20H29V19H30V20ZM30 18H29V17H30V18ZM30 16H29V15H30V16ZM30 14H29V13H30V14ZM30 12H29V11H30V12ZM30 10H29V9H30V10ZM30 8H29V7H30V8ZM30 6H29V5H30V6ZM30 4H29V3H30V4ZM30 2H29V1H30V2Z" fill="#1C1F21"></path> <path d="M18 48H17V47H18V48ZM18 46H17V45H18V46ZM18 44H17V43H18V44ZM18 42H17V41H18V42ZM18 40H17V39H18V40ZM18 38H17V37H18V38ZM18 36H17V35H18V36ZM18 34H17V33H18V34ZM18 32H17V31H18V32ZM18 30H17V29H18V30ZM18 28H17V27H18V28ZM18 26H17V25H18V26ZM18 24H17V23H18V24ZM18 22H17V21H18V22ZM18 20H17V19H18V20ZM18 18H17V17H18V18ZM18 16H17V15H18V16ZM18 14H17V13H18V14ZM18 12H17V11H18V12ZM18 10H17V9H18V10ZM18 8H17V7H18V8ZM18 6H17V5H18V6ZM18 4H17V3H18V4ZM18 2H17V1H18V2Z" fill="#1C1F21"></path> <path d="M6 48H5V47H6V48ZM6 46H5V45H6V46ZM6 44H5V43H6V44ZM6 42H5V41H6V42ZM6 40H5V39H6V40ZM6 38H5V37H6V38ZM6 36H5V35H6V36ZM6 34H5V33H6V34ZM6 32H5V31H6V32ZM6 30H5V29H6V30ZM6 28H5V27H6V28ZM6 26H5V25H6V26ZM6 24H5V23H6V24ZM6 22H5V21H6V22ZM6 20H5V19H6V20ZM6 18H5V17H6V18ZM6 16H5V15H6V16ZM6 14H5V13H6V14ZM6 12H5V11H6V12ZM6 10H5V9H6V10ZM6 8H5V7H6V8ZM6 6H5V5H6V6ZM6 4H5V3H6V4ZM6 2H5V1H6V2Z" fill="#1C1F21"></path> <path d="M45 48H44V47H45V48ZM45 46H44V45H45V46ZM45 44H44V43H45V44ZM45 42H44V41H45V42ZM45 40H44V39H45V40ZM45 38H44V37H45V38ZM45 36H44V35H45V36ZM45 34H44V33H45V34ZM45 32H44V31H45V32ZM45 30H44V29H45V30ZM45 28H44V27H45V28ZM45 26H44V25H45V26ZM45 24H44V23H45V24ZM45 22H44V21H45V22ZM45 20H44V19H45V20ZM45 18H44V17H45V18ZM45 16H44V15H45V16ZM45 14H44V13H45V14ZM45 12H44V11H45V12ZM45 10H44V9H45V10ZM45 8H44V7H45V8ZM45 6H44V5H45V6ZM45 4H44V3H45V4ZM45 2H44V1H45V2Z" fill="#1C1F21"></path> <path d="M33 48H32V47H33V48ZM33 46H32V45H33V46ZM33 44H32V43H33V44ZM33 42H32V41H33V42ZM33 40H32V39H33V40ZM33 38H32V37H33V38ZM33 36H32V35H33V36ZM33 34H32V33H33V34ZM33 32H32V31H33V32ZM33 30H32V29H33V30ZM33 28H32V27H33V28ZM33 26H32V25H33V26ZM33 24H32V23H33V24ZM33 22H32V21H33V22ZM33 20H32V19H33V20ZM33 18H32V17H33V18ZM33 16H32V15H33V16ZM33 14H32V13H33V14ZM33 12H32V11H33V12ZM33 10H32V9H33V10ZM33 8H32V7H33V8ZM33 6H32V5H33V6ZM33 4H32V3H33V4ZM33 2H32V1H33V2Z" fill="#1C1F21"></path> <path d="M21 48H20V47H21V48ZM21 46H20V45H21V46ZM21 44H20V43H21V44ZM21 42H20V41H21V42ZM21 40H20V39H21V40ZM21 38H20V37H21V38ZM21 36H20V35H21V36ZM21 34H20V33H21V34ZM21 32H20V31H21V32ZM21 30H20V29H21V30ZM21 28H20V27H21V28ZM21 26H20V25H21V26ZM21 24H20V23H21V24ZM21 22H20V21H21V22ZM21 20H20V19H21V20ZM21 18H20V17H21V18ZM21 16H20V15H21V16ZM21 14H20V13H21V14ZM21 12H20V11H21V12ZM21 10H20V9H21V10ZM21 8H20V7H21V8ZM21 6H20V5H21V6ZM21 4H20V3H21V4ZM21 2H20V1H21V2Z" fill="#1C1F21"></path> <path d="M9 48H8V47H9V48ZM9 46H8V45H9V46ZM9 44H8V43H9V44ZM9 42H8V41H9V42ZM9 40H8V39H9V40ZM9 38H8V37H9V38ZM9 36H8V35H9V36ZM9 34H8V33H9V34ZM9 32H8V31H9V32ZM9 30H8V29H9V30ZM9 28H8V27H9V28ZM9 26H8V25H9V26ZM9 24H8V23H9V24ZM9 22H8V21H9V22ZM9 20H8V19H9V20ZM9 18H8V17H9V18ZM9 16H8V15H9V16ZM9 14H8V13H9V14ZM9 12H8V11H9V12ZM9 10H8V9H9V10ZM9 8H8V7H9V8ZM9 6H8V5H9V6ZM9 4H8V3H9V4ZM9 2H8V1H9V2Z" fill="#1C1F21"></path> <path d="M39 48H38V47H39V48ZM39 46H38V45H39V46ZM39 44H38V43H39V44ZM39 42H38V41H39V42ZM39 40H38V39H39V40ZM39 38H38V37H39V38ZM39 36H38V35H39V36ZM39 34H38V33H39V34ZM39 32H38V31H39V32ZM39 30H38V29H39V30ZM39 28H38V27H39V28ZM39 26H38V25H39V26ZM39 24H38V23H39V24ZM39 22H38V21H39V22ZM39 20H38V19H39V20ZM39 18H38V17H39V18ZM39 16H38V15H39V16ZM39 14H38V13H39V14ZM39 12H38V11H39V12ZM39 10H38V9H39V10ZM39 8H38V7H39V8ZM39 6H38V5H39V6ZM39 4H38V3H39V4ZM39 2H38V1H39V2Z" fill="#1C1F21"></path> <path d="M27 48H26V47H27V48ZM27 46H26V45H27V46ZM27 44H26V43H27V44ZM27 42H26V41H27V42ZM27 40H26V39H27V40ZM27 38H26V37H27V38ZM27 36H26V35H27V36ZM27 34H26V33H27V34ZM27 32H26V31H27V32ZM27 30H26V29H27V30ZM27 28H26V27H27V28ZM27 26H26V25H27V26ZM27 24H26V23H27V24ZM27 22H26V21H27V22ZM27 20H26V19H27V20ZM27 18H26V17H27V18ZM27 16H26V15H27V16ZM27 14H26V13H27V14ZM27 12H26V11H27V12ZM27 10H26V9H27V10ZM27 8H26V7H27V8ZM27 6H26V5H27V6ZM27 4H26V3H27V4ZM27 2H26V1H27V2Z" fill="#1C1F21"></path> <path d="M15 48H14V47H15V48ZM15 46H14V45H15V46ZM15 44H14V43H15V44ZM15 42H14V41H15V42ZM15 40H14V39H15V40ZM15 38H14V37H15V38ZM15 36H14V35H15V36ZM15 34H14V33H15V34ZM15 32H14V31H15V32ZM15 30H14V29H15V30ZM15 28H14V27H15V28ZM15 26H14V25H15V26ZM15 24H14V23H15V24ZM15 22H14V21H15V22ZM15 20H14V19H15V20ZM15 18H14V17H15V18ZM15 16H14V15H15V16ZM15 14H14V13H15V14ZM15 12H14V11H15V12ZM15 10H14V9H15V10ZM15 8H14V7H15V8ZM15 6H14V5H15V6ZM15 4H14V3H15V4ZM15 2H14V1H15V2Z" fill="#1C1F21"></path> <path d="M3 48H2V47H3V48ZM3 46H2V45H3V46ZM3 44H2V43H3V44ZM3 42H2V41H3V42ZM3 40H2V39H3V40ZM3 38H2V37H3V38ZM3 36H2V35H3V36ZM3 34H2V33H3V34ZM3 32H2V31H3V32ZM3 30H2V29H3V30ZM3 28H2V27H3V28ZM3 26H2V25H3V26ZM3 24H2V23H3V24ZM3 22H2V21H3V22ZM3 20H2V19H3V20ZM3 18H2V17H3V18ZM3 16H2V15H3V16ZM3 14H2V13H3V14ZM3 12H2V11H3V12ZM3 10H2V9H3V10ZM3 8H2V7H3V8ZM3 6H2V5H3V6ZM3 4H2V3H3V4ZM3 2H2V1H3V2Z" fill="#1C1F21"></path> </g><g opacity="0.09"> <rect x="5" y="5" width="1" height="1" fill="#1C1F21"></rect> <rect x="5" y="11" width="1" height="1" fill="#1C1F21"></rect> <rect x="5" y="17" width="1" height="1" fill="#1C1F21"></rect> <rect x="5" y="23" width="1" height="1" fill="#1C1F21"></rect> <rect x="5" y="29" width="1" height="1" fill="#1C1F21"></rect> <rect x="5" y="35" width="1" height="1" fill="#1C1F21"></rect> <rect x="5" y="41" width="1" height="1" fill="#1C1F21"></rect> <rect x="5" y="47" width="1" height="1" fill="#1C1F21"></rect> <rect x="11" y="5" width="1" height="1" fill="#1C1F21"></rect> <rect x="11" y="11" width="1" height="1" fill="#1C1F21"></rect> <rect x="11" y="17" width="1" height="1" fill="#1C1F21"></rect> <rect x="11" y="23" width="1" height="1" fill="#1C1F21"></rect> <rect x="11" y="29" width="1" height="1" fill="#1C1F21"></rect> <rect x="11" y="35" width="1" height="1" fill="#1C1F21"></rect> <rect x="11" y="41" width="1" height="1" fill="#1C1F21"></rect> <rect x="11" y="47" width="1" height="1" fill="#1C1F21"></rect> <rect x="17" y="5" width="1" height="1" fill="#1C1F21"></rect> <rect x="17" y="11" width="1" height="1" fill="#1C1F21"></rect> <rect x="17" y="17" width="1" height="1" fill="#1C1F21"></rect> <rect x="17" y="23" width="1" height="1" fill="#1C1F21"></rect> <rect x="17" y="29" width="1" height="1" fill="#1C1F21"></rect> <rect x="17" y="35" width="1" height="1" fill="#1C1F21"></rect> <rect x="17" y="41" width="1" height="1" fill="#1C1F21"></rect> <rect x="17" y="47" width="1" height="1" fill="#1C1F21"></rect> <rect x="23" y="5" width="1" height="1" fill="#1C1F21"></rect> <rect x="23" y="11" width="1" height="1" fill="#1C1F21"></rect> <rect x="23" y="17" width="1" height="1" fill="#1C1F21"></rect> <rect x="23" y="23" width="1" height="1" fill="#1C1F21"></rect> <rect x="23" y="29" width="1" height="1" fill="#1C1F21"></rect> <rect x="23" y="35" width="1" height="1" fill="#1C1F21"></rect> <rect x="23" y="41" width="1" height="1" fill="#1C1F21"></rect> <rect x="23" y="47" width="1" height="1" fill="#1C1F21"></rect> <rect x="29" y="5" width="1" height="1" fill="#1C1F21"></rect> <rect x="29" y="11" width="1" height="1" fill="#1C1F21"></rect> <rect x="29" y="17" width="1" height="1" fill="#1C1F21"></rect> <rect x="29" y="23" width="1" height="1" fill="#1C1F21"></rect> <rect x="29" y="29" width="1" height="1" fill="#1C1F21"></rect> <rect x="29" y="35" width="1" height="1" fill="#1C1F21"></rect> <rect x="29" y="41" width="1" height="1" fill="#1C1F21"></rect> <rect x="29" y="47" width="1" height="1" fill="#1C1F21"></rect> <rect x="35" y="5" width="1" height="1" fill="#1C1F21"></rect> <rect x="35" y="11" width="1" height="1" fill="#1C1F21"></rect> <rect x="35" y="17" width="1" height="1" fill="#1C1F21"></rect> <rect x="35" y="23" width="1" height="1" fill="#1C1F21"></rect> <rect x="35" y="29" width="1" height="1" fill="#1C1F21"></rect> <rect x="35" y="35" width="1" height="1" fill="#1C1F21"></rect> <rect x="35" y="41" width="1" height="1" fill="#1C1F21"></rect> <rect x="35" y="47" width="1" height="1" fill="#1C1F21"></rect> <rect x="41" y="5" width="1" height="1" fill="#1C1F21"></rect> <rect x="41" y="11" width="1" height="1" fill="#1C1F21"></rect> <rect x="41" y="17" width="1" height="1" fill="#1C1F21"></rect> <rect x="41" y="23" width="1" height="1" fill="#1C1F21"></rect> <rect x="41" y="29" width="1" height="1" fill="#1C1F21"></rect> <rect x="41" y="35" width="1" height="1" fill="#1C1F21"></rect> <rect x="41" y="41" width="1" height="1" fill="#1C1F21"></rect> <rect x="41" y="47" width="1" height="1" fill="#1C1F21"></rect> <rect x="47" y="5" width="1" height="1" fill="#1C1F21"></rect> <rect x="47" y="11" width="1" height="1" fill="#1C1F21"></rect> <rect x="47" y="17" width="1" height="1" fill="#1C1F21"></rect> <rect x="47" y="23" width="1" height="1" fill="#1C1F21"></rect> <rect x="47" y="29" width="1" height="1" fill="#1C1F21"></rect> <rect x="47" y="35" width="1" height="1" fill="#1C1F21"></rect> <rect x="47" y="41" width="1" height="1" fill="#1C1F21"></rect> <rect x="47" y="47" width="1" height="1" fill="#1C1F21"></rect> <rect x="2" y="2" width="1" height="1" fill="#1C1F21"></rect> <rect x="2" y="8" width="1" height="1" fill="#1C1F21"></rect> <rect x="2" y="14" width="1" height="1" fill="#1C1F21"></rect> <rect x="2" y="20" width="1" height="1" fill="#1C1F21"></rect> <rect x="2" y="26" width="1" height="1" fill="#1C1F21"></rect> <rect x="2" y="32" width="1" height="1" fill="#1C1F21"></rect> <rect x="2" y="38" width="1" height="1" fill="#1C1F21"></rect> <rect x="2" y="44" width="1" height="1" fill="#1C1F21"></rect> <rect x="8" y="2" width="1" height="1" fill="#1C1F21"></rect> <rect x="8" y="8" width="1" height="1" fill="#1C1F21"></rect> <rect x="8" y="14" width="1" height="1" fill="#1C1F21"></rect> <rect x="8" y="20" width="1" height="1" fill="#1C1F21"></rect> <rect x="8" y="26" width="1" height="1" fill="#1C1F21"></rect> <rect x="8" y="32" width="1" height="1" fill="#1C1F21"></rect> <rect x="8" y="38" width="1" height="1" fill="#1C1F21"></rect> <rect x="8" y="44" width="1" height="1" fill="#1C1F21"></rect> <rect x="14" y="2" width="1" height="1" fill="#1C1F21"></rect> <rect x="14" y="8" width="1" height="1" fill="#1C1F21"></rect> <rect x="14" y="14" width="1" height="1" fill="#1C1F21"></rect> <rect x="14" y="20" width="1" height="1" fill="#1C1F21"></rect> <rect x="14" y="26" width="1" height="1" fill="#1C1F21"></rect> <rect x="14" y="32" width="1" height="1" fill="#1C1F21"></rect> <rect x="14" y="38" width="1" height="1" fill="#1C1F21"></rect> <rect x="14" y="44" width="1" height="1" fill="#1C1F21"></rect> <rect x="20" y="2" width="1" height="1" fill="#1C1F21"></rect> <rect x="20" y="8" width="1" height="1" fill="#1C1F21"></rect> <rect x="20" y="14" width="1" height="1" fill="#1C1F21"></rect> <rect x="20" y="20" width="1" height="1" fill="#1C1F21"></rect> <rect x="20" y="26" width="1" height="1" fill="#1C1F21"></rect> <rect x="20" y="32" width="1" height="1" fill="#1C1F21"></rect> <rect x="20" y="38" width="1" height="1" fill="#1C1F21"></rect> <rect x="20" y="44" width="1" height="1" fill="#1C1F21"></rect> <rect x="26" y="2" width="1" height="1" fill="#1C1F21"></rect> <rect x="26" y="8" width="1" height="1" fill="#1C1F21"></rect> <rect x="26" y="14" width="1" height="1" fill="#1C1F21"></rect> <rect x="26" y="20" width="1" height="1" fill="#1C1F21"></rect> <rect x="26" y="26" width="1" height="1" fill="#1C1F21"></rect> <rect x="26" y="32" width="1" height="1" fill="#1C1F21"></rect> <rect x="26" y="38" width="1" height="1" fill="#1C1F21"></rect> <rect x="26" y="44" width="1" height="1" fill="#1C1F21"></rect> <rect x="32" y="2" width="1" height="1" fill="#1C1F21"></rect> <rect x="32" y="8" width="1" height="1" fill="#1C1F21"></rect> <rect x="32" y="14" width="1" height="1" fill="#1C1F21"></rect> <rect x="32" y="20" width="1" height="1" fill="#1C1F21"></rect> <rect x="32" y="26" width="1" height="1" fill="#1C1F21"></rect> <rect x="32" y="32" width="1" height="1" fill="#1C1F21"></rect> <rect x="32" y="38" width="1" height="1" fill="#1C1F21"></rect> <rect x="32" y="44" width="1" height="1" fill="#1C1F21"></rect> <rect x="38" y="2" width="1" height="1" fill="#1C1F21"></rect> <rect x="38" y="8" width="1" height="1" fill="#1C1F21"></rect> <rect x="38" y="14" width="1" height="1" fill="#1C1F21"></rect> <rect x="38" y="20" width="1" height="1" fill="#1C1F21"></rect> <rect x="38" y="26" width="1" height="1" fill="#1C1F21"></rect> <rect x="38" y="32" width="1" height="1" fill="#1C1F21"></rect> <rect x="38" y="38" width="1" height="1" fill="#1C1F21"></rect> <rect x="38" y="44" width="1" height="1" fill="#1C1F21"></rect> <rect x="44" y="2" width="1" height="1" fill="#1C1F21"></rect> <rect x="44" y="8" width="1" height="1" fill="#1C1F21"></rect> <rect x="44" y="14" width="1" height="1" fill="#1C1F21"></rect> <rect x="44" y="20" width="1" height="1" fill="#1C1F21"></rect> <rect x="44" y="26" width="1" height="1" fill="#1C1F21"></rect> <rect x="44" y="32" width="1" height="1" fill="#1C1F21"></rect> <rect x="44" y="38" width="1" height="1" fill="#1C1F21"></rect> <rect x="44" y="44" width="1" height="1" fill="#1C1F21"></rect> <rect x="2" y="47" width="1" height="1" fill="#1C1F21"></rect> <rect x="2" y="5" width="1" height="1" fill="#1C1F21"></rect> <rect x="2" y="11" width="1" height="1" fill="#1C1F21"></rect> <rect x="2" y="17" width="1" height="1" fill="#1C1F21"></rect> <rect x="2" y="23" width="1" height="1" fill="#1C1F21"></rect> <rect x="2" y="29" width="1" height="1" fill="#1C1F21"></rect> <rect x="2" y="35" width="1" height="1" fill="#1C1F21"></rect> <rect x="2" y="41" width="1" height="1" fill="#1C1F21"></rect> <rect x="8" y="47" width="1" height="1" fill="#1C1F21"></rect> <rect x="8" y="5" width="1" height="1" fill="#1C1F21"></rect> <rect x="8" y="11" width="1" height="1" fill="#1C1F21"></rect> <rect x="8" y="17" width="1" height="1" fill="#1C1F21"></rect> <rect x="8" y="23" width="1" height="1" fill="#1C1F21"></rect> <rect x="8" y="29" width="1" height="1" fill="#1C1F21"></rect> <rect x="8" y="35" width="1" height="1" fill="#1C1F21"></rect> <rect x="8" y="41" width="1" height="1" fill="#1C1F21"></rect> <rect x="14" y="47" width="1" height="1" fill="#1C1F21"></rect> <rect x="14" y="5" width="1" height="1" fill="#1C1F21"></rect> <rect x="14" y="11" width="1" height="1" fill="#1C1F21"></rect> <rect x="14" y="17" width="1" height="1" fill="#1C1F21"></rect> <rect x="14" y="23" width="1" height="1" fill="#1C1F21"></rect> <rect x="14" y="29" width="1" height="1" fill="#1C1F21"></rect> <rect x="14" y="35" width="1" height="1" fill="#1C1F21"></rect> <rect x="14" y="41" width="1" height="1" fill="#1C1F21"></rect> <rect x="20" y="47" width="1" height="1" fill="#1C1F21"></rect> <rect x="20" y="5" width="1" height="1" fill="#1C1F21"></rect> <rect x="20" y="11" width="1" height="1" fill="#1C1F21"></rect> <rect x="20" y="17" width="1" height="1" fill="#1C1F21"></rect> <rect x="20" y="23" width="1" height="1" fill="#1C1F21"></rect> <rect x="20" y="29" width="1" height="1" fill="#1C1F21"></rect> <rect x="20" y="35" width="1" height="1" fill="#1C1F21"></rect> <rect x="20" y="41" width="1" height="1" fill="#1C1F21"></rect> <rect x="26" y="47" width="1" height="1" fill="#1C1F21"></rect> <rect x="26" y="5" width="1" height="1" fill="#1C1F21"></rect> <rect x="26" y="11" width="1" height="1" fill="#1C1F21"></rect> <rect x="26" y="17" width="1" height="1" fill="#1C1F21"></rect> <rect x="26" y="23" width="1" height="1" fill="#1C1F21"></rect> <rect x="26" y="29" width="1" height="1" fill="#1C1F21"></rect> <rect x="26" y="35" width="1" height="1" fill="#1C1F21"></rect> <rect x="26" y="41" width="1" height="1" fill="#1C1F21"></rect> <rect x="32" y="47" width="1" height="1" fill="#1C1F21"></rect> <rect x="32" y="5" width="1" height="1" fill="#1C1F21"></rect> <rect x="32" y="11" width="1" height="1" fill="#1C1F21"></rect> <rect x="32" y="17" width="1" height="1" fill="#1C1F21"></rect> <rect x="32" y="23" width="1" height="1" fill="#1C1F21"></rect> <rect x="32" y="29" width="1" height="1" fill="#1C1F21"></rect> <rect x="32" y="35" width="1" height="1" fill="#1C1F21"></rect> <rect x="32" y="41" width="1" height="1" fill="#1C1F21"></rect> <rect x="38" y="47" width="1" height="1" fill="#1C1F21"></rect> <rect x="38" y="5" width="1" height="1" fill="#1C1F21"></rect> <rect x="38" y="11" width="1" height="1" fill="#1C1F21"></rect> <rect x="38" y="17" width="1" height="1" fill="#1C1F21"></rect> <rect x="38" y="23" width="1" height="1" fill="#1C1F21"></rect> <rect x="38" y="29" width="1" height="1" fill="#1C1F21"></rect> <rect x="38" y="35" width="1" height="1" fill="#1C1F21"></rect> <rect x="38" y="41" width="1" height="1" fill="#1C1F21"></rect> <rect x="44" y="47" width="1" height="1" fill="#1C1F21"></rect> <rect x="44" y="5" width="1" height="1" fill="#1C1F21"></rect> <rect x="44" y="11" width="1" height="1" fill="#1C1F21"></rect> <rect x="44" y="17" width="1" height="1" fill="#1C1F21"></rect> <rect x="44" y="23" width="1" height="1" fill="#1C1F21"></rect> <rect x="44" y="29" width="1" height="1" fill="#1C1F21"></rect> <rect x="44" y="35" width="1" height="1" fill="#1C1F21"></rect> <rect x="44" y="41" width="1" height="1" fill="#1C1F21"></rect> </g></svg>
